<svg width="32" height="39" viewBox="0 0 32 39" fill="none" xmlns="http://www.w3.org/2000/svg">
<g filter="url(#filter0_d_11_296)">
<mask id="mask0_11_296" style="mask-type:luminance" maskUnits="userSpaceOnUse" x="5" y="1" width="22" height="30">
<path d="M24.6667 5.33325H7.33333C6.59695 5.33325 6 5.93021 6 6.66659V27.9999C6 28.7363 6.59695 29.3333 7.33333 29.3333H24.6667C25.403 29.3333 26 28.7363 26 27.9999V6.66659C26 5.93021 25.403 5.33325 24.6667 5.33325Z" fill="white" stroke="white" stroke-width="2" stroke-linejoin="round"/>
<path d="M12 2.66663V6.66663M20 2.66663V6.66663" stroke="white" stroke-width="2" stroke-linecap="round" stroke-linejoin="round"/>
<path d="M10.6667 12.6666H21.3334M10.6667 18H18.6667M10.6667 23.3333H16.0001" stroke="black" stroke-width="2" stroke-linecap="round" stroke-linejoin="round"/>
</mask>
<g mask="url(#mask0_11_296)">
<path d="M0 0H32V32H0V0Z" fill="#8900FE"/>
</g>
</g>
<defs>
<filter id="filter0_d_11_296" x="-4" y="0" width="40" height="40" filterUnits="userSpaceOnUse" color-interpolation-filters="sRGB">
<feFlood flood-opacity="0" result="BackgroundImageFix"/>
<feColorMatrix in="SourceAlpha" type="matrix" values="0 0 0 0 0 0 0 0 0 0 0 0 0 0 0 0 0 0 127 0" result="hardAlpha"/>
<feOffset dy="4"/>
<feGaussianBlur stdDeviation="2"/>
<feComposite in2="hardAlpha" operator="out"/>
<feColorMatrix type="matrix" values="0 0 0 0 0 0 0 0 0 0 0 0 0 0 0 0 0 0 0.25 0"/>
<feBlend mode="normal" in2="BackgroundImageFix" result="effect1_dropShadow_11_296"/>
<feBlend mode="normal" in="SourceGraphic" in2="effect1_dropShadow_11_296" result="shape"/>
</filter>
</defs>
</svg>
